<svg width="100%" viewBox="0 0 680 560" role="img" xmlns="http://www.w3.org/2000/svg">
<title>/assets 全页面 taste 重设计 v2（对齐实际功能）</title>
<desc>暗色工作台：亮度阶梯表达深度（地板最暗/rail 微抬/输入框与树激活行下沉成井/缩略图漂浮）；顶栏控件按材质区分；选择模式 tile 左上角圆形 checkbox（对齐实际）；底部矩形批量条含全选/清除/移动/收藏/发布/删除全 7 动作。</desc>
<defs>
<linearGradient id="tA" x1="0" y1="0" x2="0" y2="1"><stop offset="0" stop-color="#26262c"/><stop offset="1" stop-color="#1e1e23"/></linearGradient>
<linearGradient id="tB" x1="0" y1="0" x2="0" y2="1"><stop offset="0" stop-color="#2c2c33"/><stop offset="1" stop-color="#232329"/></linearGradient>
</defs>
<rect x="8" y="8" width="664" height="544" rx="14" fill="#0b0b0d"/>
<rect x="8" y="8" width="62" height="544" rx="14" fill="#131316"/>
<text x="39" y="32" font-size="10" fill="#ececec" text-anchor="middle" font-weight="500" letter-spacing="1">ANTEI</text>
<text x="39" y="74" font-size="7.5" fill="#6a6a72" text-anchor="middle" dominant-baseline="central">画廊</text>
<text x="39" y="100" font-size="7.5" fill="#6a6a72" text-anchor="middle" dominant-baseline="central">提示词</text>
<rect x="16" y="118" width="46" height="22" rx="7" fill="#060608"/>
<rect x="16" y="118" width="2.5" height="22" rx="1" fill="#f2f2f2"/>
<text x="41" y="130" font-size="7.5" fill="#f2f2f2" text-anchor="middle" dominant-baseline="central" font-weight="500">素材</text>
<text x="39" y="160" font-size="7.5" fill="#6a6a72" text-anchor="middle" dominant-baseline="central">卡片</text>
<text x="39" y="200" font-size="7.5" fill="#6a6a72" text-anchor="middle" dominant-baseline="central">图像</text>
<text x="39" y="224" font-size="7.5" fill="#6a6a72" text-anchor="middle" dominant-baseline="central">视频</text>
<text x="39" y="248" font-size="7.5" fill="#6a6a72" text-anchor="middle" dominant-baseline="central">音频</text>
<text x="39" y="272" font-size="7.5" fill="#6a6a72" text-anchor="middle" dominant-baseline="central">LoRA</text>
<text x="39" y="296" font-size="7.5" fill="#6a6a72" text-anchor="middle" dominant-baseline="central">画布</text>
<circle cx="28" cy="526" r="8" fill="#26262c"/>
<text x="44" y="526" font-size="7.5" fill="#9a9aa2" dominant-baseline="central">YINIG</text>
<text x="86" y="32" font-size="12" fill="#ececec" dominant-baseline="central" font-weight="500">素材</text>
<text x="116" y="33" font-size="10" fill="#6a6a72" dominant-baseline="central" font-family="ui-monospace,monospace">328</text>
<rect x="150" y="20" width="150" height="26" rx="8" fill="#060608"/>
<line x1="150" y1="21" x2="300" y2="21" stroke="#000" stroke-width="0.75" opacity="0.5"/>
<circle cx="164" cy="33" r="4" fill="none" stroke="#6a6a72" stroke-width="1"/>
<text x="176" y="33" font-size="9" fill="#5a5a62" dominant-baseline="central">搜索 prompt / 模型…</text>
<rect x="284" y="24" width="12" height="16" rx="3" fill="#161618"/>
<text x="290" y="33" font-size="8" fill="#8a8a92" text-anchor="middle" dominant-baseline="central">/</text>
<rect x="312" y="20" width="86" height="26" rx="8" fill="#161619"/>
<rect x="314" y="22" width="24" height="22" rx="6" fill="#2e2e35"/>
<text x="326" y="33" font-size="9" fill="#ececec" text-anchor="middle" dominant-baseline="central">图</text>
<text x="350" y="33" font-size="9" fill="#6a6a72" text-anchor="middle" dominant-baseline="central">视</text>
<text x="370" y="33" font-size="9" fill="#6a6a72" text-anchor="middle" dominant-baseline="central">音</text>
<text x="388" y="33" font-size="9" fill="#6a6a72" text-anchor="middle" dominant-baseline="central">3D</text>
<text x="414" y="33" font-size="9" fill="#9a9aa2" dominant-baseline="central">最新</text>
<text x="437" y="33" font-size="8" fill="#6a6a72" dominant-baseline="central">▾</text>
<rect x="458" y="22" width="54" height="22" rx="7" fill="#161619"/>
<text x="468" y="33" font-size="8" fill="#6a6a72" text-anchor="middle" dominant-baseline="central">4</text>
<rect x="478" y="24" width="16" height="18" rx="5" fill="#2e2e35"/>
<text x="486" y="33" font-size="8" fill="#ececec" text-anchor="middle" dominant-baseline="central">6</text>
<text x="504" y="33" font-size="8" fill="#6a6a72" text-anchor="middle" dominant-baseline="central">8</text>
<rect x="522" y="20" width="46" height="26" rx="8" fill="none" stroke="#2a2a30" stroke-width="0.75"/>
<text x="545" y="33" font-size="9" fill="#9a9aa2" text-anchor="middle" dominant-baseline="central">✕ 选择</text>
<line x1="80" y1="58" x2="672" y2="58" stroke="#1c1c1f" stroke-width="1"/>

<!-- Grid tiles float; selection checkbox top-LEFT (matches real UI) -->
<g>
<rect x="86" y="72" width="90" height="90" rx="5" fill="url(#tA)"/>
<circle cx="99" cy="85" r="6.5" fill="#0b0b0d" opacity="0.55"/><circle cx="99" cy="85" r="6.5" fill="none" stroke="#d0d0d6" stroke-width="1.2"/>
<rect x="184" y="72" width="90" height="90" rx="5" fill="url(#tB)"/>
<circle cx="197" cy="85" r="6.5" fill="#0b0b0d" opacity="0.55"/><circle cx="197" cy="85" r="6.5" fill="none" stroke="#d0d0d6" stroke-width="1.2"/>
<rect x="184" y="142" width="90" height="20" fill="#08080a" opacity="0.82"/>
<text x="192" y="152" font-size="7.5" fill="#c9c9cf" dominant-baseline="central" font-family="ui-monospace,monospace">Seedance · 4s</text>
<!-- selected tile: white ring + filled top-left check -->
<rect x="282" y="72" width="90" height="90" rx="5" fill="url(#tA)"/>
<rect x="281" y="71" width="92" height="92" rx="6" fill="none" stroke="#f2f2f2" stroke-width="2"/>
<circle cx="295" cy="85" r="7" fill="#f2f2f2"/><path d="M292 85 l2 2 l4 -4" fill="none" stroke="#111" stroke-width="1.3" stroke-linecap="round" stroke-linejoin="round"/>
<rect x="380" y="72" width="90" height="90" rx="5" fill="url(#tB)"/>
<circle cx="393" cy="85" r="6.5" fill="#0b0b0d" opacity="0.55"/><circle cx="393" cy="85" r="6.5" fill="none" stroke="#d0d0d6" stroke-width="1.2"/>
<rect x="478" y="72" width="90" height="90" rx="5" fill="url(#tA)"/>
<circle cx="491" cy="85" r="6.5" fill="#0b0b0d" opacity="0.55"/><circle cx="491" cy="85" r="6.5" fill="none" stroke="#d0d0d6" stroke-width="1.2"/>
</g>
<rect x="86" y="170" width="90" height="90" rx="5" fill="url(#tB)"/>
<rect x="184" y="170" width="90" height="90" rx="5" fill="url(#tA)"/>
<rect x="282" y="170" width="90" height="90" rx="5" fill="url(#tB)"/>
<rect x="380" y="170" width="90" height="90" rx="5" fill="url(#tA)"/>
<rect x="379" y="169" width="92" height="92" rx="6" fill="none" stroke="#f2f2f2" stroke-width="2"/>
<circle cx="393" cy="183" r="7" fill="#f2f2f2"/><path d="M390 183 l2 2 l4 -4" fill="none" stroke="#111" stroke-width="1.3" stroke-linecap="round" stroke-linejoin="round"/>
<rect x="478" y="170" width="90" height="90" rx="5" fill="url(#tB)"/>
<rect x="86" y="268" width="90" height="90" rx="5" fill="url(#tA)"/>
<rect x="184" y="268" width="90" height="90" rx="5" fill="url(#tB)"/>
<rect x="282" y="268" width="90" height="90" rx="5" fill="url(#tA)"/>
<rect x="380" y="268" width="90" height="90" rx="5" fill="url(#tB)"/>
<rect x="478" y="268" width="90" height="90" rx="5" fill="url(#tA)"/>
<rect x="86" y="366" width="90" height="60" rx="5" fill="url(#tB)"/>
<rect x="184" y="366" width="90" height="60" rx="5" fill="url(#tA)"/>
<rect x="282" y="366" width="90" height="60" rx="5" fill="url(#tB)"/>
<rect x="380" y="366" width="90" height="60" rx="5" fill="url(#tA)"/>
<rect x="478" y="366" width="90" height="60" rx="5" fill="url(#tB)"/>

<line x1="580" y1="58" x2="580" y2="440" stroke="#1c1c1f" stroke-width="1"/>
<text x="596" y="78" font-size="8.5" fill="#5a5a62" letter-spacing="1">视图</text>
<rect x="590" y="86" width="76" height="22" rx="6" fill="#060608"/>
<rect x="590" y="86" width="2.5" height="22" rx="1" fill="#f2f2f2"/>
<text x="600" y="97" font-size="9" fill="#ececec" dominant-baseline="central">全部</text>
<text x="662" y="97" font-size="8" fill="#6a6a72" text-anchor="end" dominant-baseline="central" font-family="ui-monospace,monospace">328</text>
<text x="600" y="121" font-size="9" fill="#9a9aa2" dominant-baseline="central">收藏</text>
<text x="662" y="121" font-size="8" fill="#6a6a72" text-anchor="end" dominant-baseline="central" font-family="ui-monospace,monospace">3</text>
<text x="600" y="143" font-size="9" fill="#9a9aa2" dominant-baseline="central">已发布到画廊</text>
<text x="662" y="143" font-size="8" fill="#6a6a72" text-anchor="end" dominant-baseline="central" font-family="ui-monospace,monospace">12</text>
<text x="600" y="165" font-size="9" fill="#9a9aa2" dominant-baseline="central">本地素材</text>
<text x="596" y="198" font-size="8.5" fill="#5a5a62" letter-spacing="1">文件夹</text>
<text x="600" y="218" font-size="9" fill="#9a9aa2" dominant-baseline="central">未分类</text>
<text x="662" y="218" font-size="8" fill="#6a6a72" text-anchor="end" dominant-baseline="central" font-family="ui-monospace,monospace">64</text>
<text x="600" y="240" font-size="9" fill="#9a9aa2" dominant-baseline="central">从零开始</text>
<text x="600" y="262" font-size="9" fill="#9a9aa2" dominant-baseline="central">▾ ba</text>
<text x="610" y="282" font-size="9" fill="#6a6a72" dominant-baseline="central">キサキ</text>
<text x="662" y="282" font-size="8" fill="#6a6a72" text-anchor="end" dominant-baseline="central" font-family="ui-monospace,monospace">5</text>
<text x="600" y="304" font-size="9" fill="#9a9aa2" dominant-baseline="central">姿势参照图</text>
<text x="662" y="304" font-size="8" fill="#6a6a72" text-anchor="end" dominant-baseline="central" font-family="ui-monospace,monospace">12</text>
<text x="600" y="326" font-size="9" fill="#9a9aa2" dominant-baseline="central">▾ 鸣潮</text>
<text x="610" y="346" font-size="9" fill="#6a6a72" dominant-baseline="central">达妮娅</text>
<text x="662" y="346" font-size="8" fill="#6a6a72" text-anchor="end" dominant-baseline="central" font-family="ui-monospace,monospace">47</text>

<!-- Batch bar: real 7-action set -->
<rect x="120" y="456" width="424" height="40" rx="12" fill="#202025"/>
<rect x="120" y="456" width="424" height="40" rx="12" fill="none" stroke="#34343a" stroke-width="0.75"/>
<text x="134" y="476" font-size="9.5" fill="#ececec" dominant-baseline="central"><tspan font-family="ui-monospace,monospace">1</tspan> 已选</text>
<line x1="178" y1="465" x2="178" y2="487" stroke="#34343a" stroke-width="0.75"/>
<text x="190" y="476" font-size="9.5" fill="#a9a9b0" dominant-baseline="central">全选</text>
<text x="224" y="476" font-size="9.5" fill="#a9a9b0" dominant-baseline="central">清除</text>
<line x1="258" y1="465" x2="258" y2="487" stroke="#34343a" stroke-width="0.75"/>
<rect x="268" y="464" width="86" height="24" rx="8" fill="none" stroke="#3a3a42" stroke-width="0.75"/>
<text x="308" y="476" font-size="9" fill="#c4c4ca" text-anchor="middle" dominant-baseline="central">移动到文件夹 ▾</text>
<rect x="360" y="464" width="52" height="24" rx="8" fill="none" stroke="#e0655f" stroke-width="0.75" opacity="0.55"/>
<text x="386" y="476" font-size="9" fill="#e0655f" text-anchor="middle" dominant-baseline="central">♥ 收藏</text>
<rect x="418" y="464" width="76" height="24" rx="8" fill="#f2f2f2"/>
<text x="456" y="476" font-size="9" fill="#111" text-anchor="middle" dominant-baseline="central" font-weight="500">⊕ 发布到画廊</text>
<line x1="502" y1="465" x2="502" y2="487" stroke="#34343a" stroke-width="0.75"/>
<rect x="510" y="464" width="24" height="24" rx="8" fill="none" stroke="#e0655f" stroke-width="0.75"/>
<text x="522" y="476" font-size="9" fill="#e0655f" text-anchor="middle" dominant-baseline="central">🗑</text>
</svg>
