<svg width="100%" viewBox="0 0 680 470" role="img" xmlns="http://www.w3.org/2000/svg">
<title>素材选择器场景化重设计线框</title>
<desc>暗色弹窗：顶部搜索框与媒体类型锁定徽标，文件夹降为横向 chips，最近生成网格（含已选中项与上传占位格），底部多选确认条。</desc>
<style>
text{font-family:system-ui,"PingFang SC","Microsoft YaHei",sans-serif}
</style>
<rect x="60" y="30" width="560" height="420" rx="14" fill="#1c1c21" stroke="#3a3a42" stroke-width="1"/>
<text x="600" y="58" font-size="16" fill="#8a8a92" text-anchor="middle" dominant-baseline="central">×</text>
<rect x="84" y="54" width="380" height="36" rx="8" fill="#26262c" stroke="#3a3a42" stroke-width="0.5"/>
<text x="100" y="72" font-size="12" fill="#8a8a92" dominant-baseline="central">搜索 prompt / 模型…（触屏不自动弹键盘）</text>
<rect x="478" y="54" width="96" height="36" rx="18" fill="#2e2e35" stroke="#3a3a42" stroke-width="0.5"/>
<text x="526" y="72" font-size="12" fill="#d7d7dc" text-anchor="middle" dominant-baseline="central">仅图片 · 锁定</text>
<rect x="84" y="106" width="56" height="28" rx="14" fill="#e8e8e8"/>
<text x="112" y="120" font-size="12" fill="#18181c" text-anchor="middle" dominant-baseline="central">全部</text>
<rect x="148" y="106" width="56" height="28" rx="14" fill="#26262c" stroke="#3a3a42" stroke-width="0.5"/>
<text x="176" y="120" font-size="12" fill="#a9a9b0" text-anchor="middle" dominant-baseline="central">收藏</text>
<rect x="212" y="106" width="52" height="28" rx="14" fill="#26262c" stroke="#3a3a42" stroke-width="0.5"/>
<text x="238" y="120" font-size="12" fill="#a9a9b0" text-anchor="middle" dominant-baseline="central">ba</text>
<rect x="272" y="106" width="60" height="28" rx="14" fill="#26262c" stroke="#3a3a42" stroke-width="0.5"/>
<text x="302" y="120" font-size="12" fill="#a9a9b0" text-anchor="middle" dominant-baseline="central">鸣潮</text>
<rect x="340" y="106" width="60" height="28" rx="14" fill="#26262c" stroke="#3a3a42" stroke-width="0.5"/>
<text x="370" y="120" font-size="12" fill="#a9a9b0" text-anchor="middle" dominant-baseline="central">测试</text>
<rect x="408" y="106" width="72" height="28" rx="14" fill="#26262c" stroke="#3a3a42" stroke-width="0.5"/>
<text x="444" y="120" font-size="12" fill="#a9a9b0" text-anchor="middle" dominant-baseline="central">更多 ▾</text>
<text x="84" y="158" font-size="12" fill="#8a8a92" dominant-baseline="central">最近生成</text>
<text x="596" y="158" font-size="11" fill="#6f6f77" text-anchor="end" dominant-baseline="central">拖入 / 粘贴文件 → 上传即选中</text>
<rect x="84" y="172" width="82" height="82" rx="8" fill="#2e2e35"/>
<rect x="176" y="172" width="82" height="82" rx="8" fill="#34343c"/>
<rect x="268" y="172" width="82" height="82" rx="8" fill="#2e2e35" stroke="#f2f2f2" stroke-width="2"/>
<circle cx="338" cy="184" r="8" fill="#f2f2f2"/>
<text x="338" y="185" font-size="11" fill="#18181c" text-anchor="middle" dominant-baseline="central">✓</text>
<rect x="360" y="172" width="82" height="82" rx="8" fill="#34343c"/>
<rect x="452" y="172" width="82" height="82" rx="8" fill="#2e2e35" stroke="#f2f2f2" stroke-width="2"/>
<circle cx="522" cy="184" r="8" fill="#f2f2f2"/>
<text x="522" y="185" font-size="11" fill="#18181c" text-anchor="middle" dominant-baseline="central">✓</text>
<rect x="84" y="264" width="82" height="82" rx="8" fill="#34343c"/>
<rect x="176" y="264" width="82" height="82" rx="8" fill="#2e2e35" stroke="#f2f2f2" stroke-width="2"/>
<circle cx="246" cy="276" r="8" fill="#f2f2f2"/>
<text x="246" y="277" font-size="11" fill="#18181c" text-anchor="middle" dominant-baseline="central">✓</text>
<rect x="268" y="264" width="82" height="82" rx="8" fill="#34343c"/>
<rect x="360" y="264" width="82" height="82" rx="8" fill="#2e2e35"/>
<rect x="452" y="264" width="82" height="82" rx="8" fill="none" stroke="#5a5a63" stroke-width="1" stroke-dasharray="5 4"/>
<text x="493" y="300" font-size="20" fill="#8a8a92" text-anchor="middle" dominant-baseline="central">＋</text>
<text x="493" y="322" font-size="10" fill="#6f6f77" text-anchor="middle" dominant-baseline="central">上传</text>
<rect x="84" y="376" width="512" height="48" rx="10" fill="#26262c" stroke="#3a3a42" stroke-width="0.5"/>
<text x="104" y="400" font-size="13" fill="#d7d7dc" dominant-baseline="central">已选 3 张</text>
<rect x="468" y="384" width="112" height="32" rx="8" fill="#ececec"/>
<text x="524" y="400" font-size="13" fill="#18181c" text-anchor="middle" dominant-baseline="central">添加 3 张</text>
</svg>
