<svg xmlns="http://www.w3.org/2000/svg" viewBox="0 0 640 640">
  <defs>
    <linearGradient id="bg" x1="0" y1="0" x2="1" y2="1">
      <stop offset="0" stop-color="#202020" />
      <stop offset="0.52" stop-color="#111111" />
      <stop offset="1" stop-color="#262626" />
    </linearGradient>
    <linearGradient id="wave" x1="0" y1="0" x2="1" y2="0">
      <stop offset="0" stop-color="#f8fafc" stop-opacity="0.28" />
      <stop offset="0.5" stop-color="#ffffff" stop-opacity="0.78" />
      <stop offset="1" stop-color="#f8fafc" stop-opacity="0.28" />
    </linearGradient>
  </defs>
  <rect width="640" height="640" fill="url(#bg)" />
  <circle cx="500" cy="128" r="132" fill="#ffffff" opacity="0.06" />
  <circle cx="144" cy="492" r="188" fill="#ffffff" opacity="0.04" />
  <g fill="url(#wave)">
    <rect x="116" y="270" width="22" height="100" rx="11" />
    <rect x="158" y="226" width="22" height="188" rx="11" />
    <rect x="200" y="186" width="22" height="268" rx="11" />
    <rect x="242" y="236" width="22" height="168" rx="11" />
    <rect x="284" y="148" width="22" height="344" rx="11" />
    <rect x="326" y="212" width="22" height="216" rx="11" />
    <rect x="368" y="180" width="22" height="280" rx="11" />
    <rect x="410" y="252" width="22" height="136" rx="11" />
    <rect x="452" y="218" width="22" height="204" rx="11" />
    <rect x="494" y="278" width="22" height="84" rx="11" />
  </g>
  <path
    d="M88 508c96-58 180-71 252-38 80 37 145 18 212-49"
    fill="none"
    stroke="#ffffff"
    stroke-opacity="0.12"
    stroke-width="18"
    stroke-linecap="round"
  />
</svg>
