<svg xmlns="http://www.w3.org/2000/svg" viewBox="0 0 640 640">
  <defs>
    <linearGradient id="bg" x1="0" y1="0" x2="1" y2="1">
      <stop offset="0" stop-color="#11202a" />
      <stop offset="0.55" stop-color="#111111" />
      <stop offset="1" stop-color="#2a2211" />
    </linearGradient>
    <linearGradient id="line" x1="0" y1="0" x2="1" y2="0">
      <stop offset="0" stop-color="#38bdf8" stop-opacity="0.38" />
      <stop offset="0.45" stop-color="#f8fafc" stop-opacity="0.82" />
      <stop offset="1" stop-color="#f59e0b" stop-opacity="0.42" />
    </linearGradient>
  </defs>
  <rect width="640" height="640" fill="url(#bg)" />
  <rect
    x="82"
    y="92"
    width="476"
    height="456"
    rx="44"
    fill="#ffffff"
    opacity="0.06"
  />
  <g fill="none" stroke="url(#line)" stroke-width="18" stroke-linecap="round">
    <path
      d="M98 320c38 0 38-104 76-104s38 208 76 208 38-296 76-296 38 384 76 384 38-216 76-216 38 96 76 96"
    />
    <path
      d="M98 424c42-30 82-45 120-45 54 0 90 31 140 31 52 0 92-34 184-86"
      opacity="0.35"
    />
  </g>
  <g fill="#ffffff" opacity="0.58">
    <circle cx="208" cy="168" r="12" />
    <circle cx="432" cy="472" r="10" />
    <circle cx="502" cy="190" r="8" />
  </g>
</svg>
