<svg width="100%" viewBox="0 0 680 460" role="img" xmlns="http://www.w3.org/2000/svg">
<title>使用多目标出口 — 高保真成品</title>
<desc>素材检视面板：左大图，右侧标题/模型 chip/prompt/参数，「使用到」四目标行（作参考图/作角色脸/LoRA素材/送画布节点，首行 hover），底部收藏下载删除幽灵图标 + 发布到画廊反相主按钮。</desc>
<defs>
<linearGradient id="hero" x1="0" y1="0" x2="1" y2="1"><stop offset="0" stop-color="#3a2b30"/><stop offset="0.55" stop-color="#2b2530"/><stop offset="1" stop-color="#242a33"/></linearGradient>
</defs>
<rect x="8" y="8" width="664" height="444" rx="14" fill="#0b0b0d"/>
<rect x="32" y="26" width="616" height="408" rx="14" fill="#141417"/>
<!-- hero image -->
<rect x="50" y="44" width="272" height="372" rx="8" fill="url(#hero)"/>
<circle cx="66" cy="60" r="8" fill="#000" opacity="0.35"/><circle cx="66" cy="60" r="8" fill="none" stroke="#e6e6ea" stroke-width="1.2"/>
<!-- right column -->
<text x="344" y="60" font-size="13" fill="#ececec" font-weight="500" dominant-baseline="central">达妮娅 · 三视图</text>
<rect x="344" y="76" width="84" height="21" rx="10" fill="#2a2a30"/>
<text x="386" y="87" font-size="9" fill="#c4c4ca" text-anchor="middle" dominant-baseline="central">Illustrious</text>
<rect x="434" y="76" width="82" height="21" rx="10" fill="#2a2a30"/>
<text x="475" y="87" font-size="9" fill="#c4c4ca" text-anchor="middle" dominant-baseline="central">1024×1536</text>
<text x="344" y="120" font-size="9" fill="#5a5a62" letter-spacing="1">PROMPT</text>
<text x="344" y="138" font-size="10.5" fill="#9a9aa2">1girl, silver hair, cat ears, dynamic pose,</text>
<text x="344" y="154" font-size="10.5" fill="#9a9aa2">three views, character sheet, masterpiece…</text>
<text x="344" y="184" font-size="9" fill="#5a5a62" letter-spacing="1">参数</text>
<text x="344" y="202" font-size="10" fill="#8f8f97" font-family="ui-monospace,monospace">cfg 5.0 · steps 28 · seed 41928 · DPM++ 2M</text>
<line x1="344" y1="224" x2="630" y2="224" stroke="#232329" stroke-width="1"/>
<text x="344" y="244" font-size="9" fill="#5a5a62" letter-spacing="1">使用到</text>
<!-- target rows -->
<rect x="340" y="254" width="294" height="30" rx="8" fill="#1f1f25"/>
<rect x="352" y="264" width="12" height="11" rx="2" fill="none" stroke="#ececec" stroke-width="1.1"/>
<text x="374" y="269" font-size="11" fill="#ececec" dominant-baseline="central">作参考图</text>
<text x="626" y="269" font-size="9" fill="#7c7c84" text-anchor="end" dominant-baseline="central">Studio 图像</text>
<circle cx="358" cy="299" r="6" fill="none" stroke="#9a9aa2" stroke-width="1.1"/>
<text x="374" y="301" font-size="11" fill="#c4c4ca" dominant-baseline="central">作角色脸</text>
<text x="626" y="301" font-size="9" fill="#6a6a72" text-anchor="end" dominant-baseline="central">角色卡 / 节点</text>
<path d="M353 331 h10 M353 328 v6 M363 328 v6" fill="none" stroke="#9a9aa2" stroke-width="1.1"/>
<text x="374" y="333" font-size="11" fill="#c4c4ca" dominant-baseline="central">LoRA 训练素材</text>
<text x="626" y="333" font-size="9" fill="#6a6a72" text-anchor="end" dominant-baseline="central">加入训练集</text>
<rect x="353" y="359" width="11" height="9" rx="2" fill="none" stroke="#9a9aa2" stroke-width="1.1"/>
<text x="374" y="365" font-size="11" fill="#c4c4ca" dominant-baseline="central">送画布节点</text>
<text x="626" y="365" font-size="9" fill="#6a6a72" text-anchor="end" dominant-baseline="central">插入当前工程</text>
<line x1="344" y1="386" x2="630" y2="386" stroke="#232329" stroke-width="1"/>
<!-- bottom actions: ghost + reversed publish -->
<path d="M348 408 a3 3 0 0 1 5 0 a3 3 0 0 1 5 0 q0 4 -5 7 q-5 -3 -5 -7 z" fill="none" stroke="#8f8f97" stroke-width="1.1"/>
<path d="M382 404 v10 M377 410 l5 5 l5 -5 M377 416 h10" fill="none" stroke="#8f8f97" stroke-width="1.1" stroke-linecap="round"/>
<rect x="408" y="404" width="10" height="11" rx="1.5" fill="none" stroke="#e0655f" stroke-width="1.1"/>
<rect x="528" y="398" width="104" height="28" rx="9" fill="#f2f2f2"/>
<text x="580" y="412" font-size="11" fill="#141414" text-anchor="middle" dominant-baseline="central" font-weight="500">发布到画廊</text>
</svg>
