<svg viewBox="0 0 1500 1060" xmlns="http://www.w3.org/2000/svg" font-family="system-ui, 'Segoe UI', 'Microsoft YaHei', sans-serif">
  <rect width="1500" height="1060" fill="#0b0b0a"/>
  <text x="40" y="30" fill="#e8e6de" font-size="20" font-weight="700">视频详情面板 v3 → v4 · 方案 B「双栏工作台」（推荐骨架）</text>
  <text x="40" y="52" fill="#6f6a63" font-size="11">左＝Figma v1 精确复刻（红色①–⑥问题）　右＝方案 B 改后（绿色①–⑥改动）　骨架复用 VideoComposer 现有 @2xl:grid-cols-2</text>

  <!-- ============ LEFT: v1 recreation ============ -->
  <text x="40" y="86" fill="#e8e6de" font-size="13" font-weight="700">v1 现状（Figma S1 精确复刻）</text>
  <rect x="40" y="100" width="580" height="650" rx="16" fill="#1a1a1a" stroke="#2a2a2a"/>

  <!-- header 100px -->
  <rect x="56" y="116" width="548" height="70" rx="10" fill="#202020" stroke="#2a2a2a"/>
  <text x="70" y="138" fill="#6f6a63" font-size="7" letter-spacing="1">项目</text>
  <text x="70" y="154" fill="#e8e6de" font-size="11" font-weight="600">弗洛洛 MV</text>
  <text x="202" y="138" fill="#6f6a63" font-size="7">镜头</text>
  <text x="202" y="154" fill="#e8e6de" font-size="11" font-weight="600">视频生成</text>
  <text x="334" y="138" fill="#6f6a63" font-size="7">版本</text>
  <text x="334" y="154" fill="#e8e6de" font-size="11" font-weight="600">03</text>
  <text x="432" y="138" fill="#6f6a63" font-size="7">模式</text>
  <text x="432" y="154" fill="#e8e6de" font-size="10" font-weight="600">参考生·图3 视频1 音频1</text>
  <circle cx="606" cy="122" r="10" fill="#ef4444"/><text x="606" y="126" text-anchor="middle" fill="#fff" font-size="10" font-weight="700">①</text>

  <!-- monitor + dept strips row -->
  <rect x="56" y="200" width="260" height="170" fill="#0b0b0a" stroke="#2a2a2a" rx="6"/>
  <polygon points="176,270 176,300 198,285" fill="#4a4f5c"/>
  <rect x="56" y="348" width="260" height="22" fill="#1a1a1a" opacity="0.85"/>
  <text x="66" y="363" fill="#9a988f" font-size="6">SEEDANCE FAST · 720P · 9:16 · AUTO</text>
  <circle cx="326" cy="206" r="10" fill="#ef4444"/><text x="326" y="210" text-anchor="middle" fill="#fff" font-size="10" font-weight="700">②</text>

  <rect x="340" y="200" width="264" height="40" rx="6" fill="#202020" stroke="#2a2a2a"/>
  <rect x="340" y="200" width="3" height="40" fill="#6f6a86"/>
  <text x="352" y="223" fill="#e8e6de" font-size="8">选角 · 角色</text>
  <rect x="340" y="248" width="264" height="40" rx="6" fill="#202020" stroke="#2a2a2a"/>
  <rect x="340" y="248" width="3" height="40" fill="#5f7a73"/>
  <text x="352" y="271" fill="#e8e6de" font-size="8">置景 · 背景</text>
  <rect x="340" y="296" width="264" height="40" rx="6" fill="#202020" stroke="#2a2a2a"/>
  <rect x="340" y="296" width="3" height="40" fill="#647386"/>
  <text x="352" y="319" fill="#e8e6de" font-size="8">动作 · 参考视频</text>
  <rect x="340" y="344" width="264" height="40" rx="6" fill="#202020" stroke="#2a2a2a"/>
  <rect x="340" y="344" width="3" height="40" fill="#856a72"/>
  <text x="352" y="367" fill="#e8e6de" font-size="8">配音 · 声音</text>
  <circle cx="614" cy="206" r="10" fill="#ef4444"/><text x="614" y="210" text-anchor="middle" fill="#fff" font-size="10" font-weight="700">④</text>

  <!-- version tiles -->
  <rect x="56" y="380" width="70" height="40" rx="6" fill="#202020" stroke="#2a2a2a"/>
  <rect x="132" y="380" width="70" height="40" rx="6" fill="#202020" stroke="#2a2a2a"/>
  <rect x="208" y="380" width="70" height="40" rx="6" fill="#202020" stroke="#4a4f5c" stroke-width="1.5"/>
  <text x="91" y="404" text-anchor="middle" fill="#6f6a63" font-size="6">V01</text>
  <text x="167" y="404" text-anchor="middle" fill="#6f6a63" font-size="6">V02</text>
  <text x="243" y="404" text-anchor="middle" fill="#c6c9d2" font-size="6">V03</text>
  <circle cx="60" cy="382" r="9" fill="#ef4444"/><text x="60" y="386" text-anchor="middle" fill="#fff" font-size="9" font-weight="700">③</text>

  <!-- prompt block -->
  <rect x="56" y="430" width="548" height="140" rx="8" fill="#202020" stroke="#2a2a2a"/>
  <text x="68" y="450" fill="#9a988f" font-size="9">生成提示词</text>
  <rect x="500" y="440" width="46" height="16" rx="8" fill="#173427"/><text x="523" y="451" text-anchor="middle" fill="#34d399" font-size="6">✨增强</text>
  <rect x="550" y="440" width="46" height="16" rx="8" fill="#1a1a1a" stroke="#4a4f5c"/><text x="573" y="451" text-anchor="middle" fill="#9a988f" font-size="6">运镜语法▾</text>
  <circle cx="606" cy="436" r="10" fill="#ef4444"/><text x="606" y="440" text-anchor="middle" fill="#fff" font-size="10" font-weight="700">⑤</text>
  <text x="68" y="474" fill="#6f6a63" font-size="7">参考〈视频1〉中的动作与镜头语言，将 @弗洛洛 中浅绿色长麻花辫……</text>
  <text x="68" y="490" fill="#6f6a63" font-size="7">少女〈图1〉坐在椅子上，神情苦恼郁闷，双臂交叉抱在胸前……</text>
  <text x="68" y="506" fill="#6f6a63" font-size="7">画面快速切换多个室内场景……</text>

  <!-- action bar -->
  <rect x="56" y="585" width="548" height="64" rx="10" fill="#22252e" stroke="#10b981"/>
  <text x="68" y="622" fill="#9a988f" font-size="8">场记：参考生 · 选角2 · 置景1 · 动作1 · 配音1</text>
  <rect x="500" y="604" width="90" height="26" rx="6" fill="#10b981"/><text x="545" y="621" text-anchor="middle" fill="#10221a" font-size="8" font-weight="700">生成视频</text>
  <circle cx="606" cy="590" r="10" fill="#ef4444"/><text x="606" y="594" text-anchor="middle" fill="#fff" font-size="10" font-weight="700">⑥</text>

  <!-- v1 legend -->
  <rect x="40" y="770" width="580" height="150" rx="10" fill="#1a1a1a" stroke="#2a2a2a"/>
  <text x="56" y="792" fill="#e8e6de" font-size="11" font-weight="700">现状问题 ①–⑥</text>
  <text x="56" y="810" fill="#c6c9d2" font-size="9">① 100px 场记板只放一行字段，标签 8px 低于可读下限</text>
  <text x="56" y="826" fill="#c6c9d2" font-size="9">② 监视器 430×242 仅占面板 13%，OSD 参数条与预览重叠挤压</text>
  <text x="56" y="842" fill="#c6c9d2" font-size="9">③ 版本条孤立，当前版本只靠 1.5px 描边区分</text>
  <text x="56" y="858" fill="#c6c9d2" font-size="9">④ 四条部门 56px 同灰堆叠，端口色仅剩 3px 竖条，扫读难分辨</text>
  <text x="56" y="874" fill="#c6c9d2" font-size="9">⑤ 工具按钮 19px 高（&lt;24px 命中区），提示词正文 9px</text>
  <text x="56" y="890" fill="#c6c9d2" font-size="9">⑥ 操作栏 100px 高却只配 100×29 按钮，CTA 弱，无片场记忆点</text>
  <text x="56" y="908" fill="#6f6a63" font-size="8">诊断：功能都在，但没有立起「导演监视器」概念——同灰度同密度圆角矩形，无主次</text>

  <!-- ============ RIGHT: B two-column ============ -->
  <text x="660" y="86" fill="#e8e6de" font-size="13" font-weight="700">方案 B · 双栏工作台（左创作／右参数，对齐代码 56rem 宽版）</text>
  <rect x="660" y="100" width="800" height="650" rx="16" fill="#1a1a1a" stroke="#2a2a2a"/>

  <!-- C1 slate header 44px -->
  <rect x="676" y="116" width="768" height="46" rx="10" fill="#0e0e0d" stroke="#2a2a2a"/>
  <line x1="690" y1="150" x2="696" y2="130" stroke="#e8e6de" stroke-width="1.5"/>
  <line x1="696" y1="150" x2="702" y2="130" stroke="#e8e6de" stroke-width="1.5"/>
  <line x1="702" y1="150" x2="708" y2="130" stroke="#e8e6de" stroke-width="1.5"/>
  <text x="722" y="134" fill="#6f6a63" font-size="7">PROJECT</text>
  <text x="722" y="148" fill="#e8e6de" font-size="11" font-weight="700">弗洛洛 MV</text>
  <text x="836" y="134" fill="#6f6a63" font-size="7">SHOT</text>
  <text x="836" y="148" fill="#e8e6de" font-size="11" font-weight="700">视频生成</text>
  <rect x="944" y="128" width="36" height="18" rx="4" fill="#2a2a2a"/><text x="962" y="141" text-anchor="middle" fill="#e8e6de" font-size="9" font-family="monospace" font-weight="700">V03</text>
  <text x="994" y="134" fill="#6f6a63" font-size="7">MODE</text>
  <text x="994" y="148" fill="#e8e6de" font-size="10" font-weight="600">参考生 · 图3 视频1 音频1</text>
  <circle cx="1358" cy="139" r="4" fill="#10b981"/><text x="1368" y="142" fill="#9a988f" font-size="8" font-family="monospace">READY</text>
  <circle cx="1436" cy="122" r="10" fill="#22c55e"/><text x="1436" y="126" text-anchor="middle" fill="#0b0b0a" font-size="10" font-weight="700">①</text>

  <!-- left column: create -->
  <rect x="676" y="176" width="52" height="20" rx="10" fill="#2a2a2a" stroke="#6f6a86"/><text x="702" y="190" text-anchor="middle" fill="#e8e6de" font-size="8">@弗洛洛</text>
  <rect x="734" y="176" width="46" height="20" rx="10" fill="#2a2a2a" stroke="#856a72"/><text x="757" y="190" text-anchor="middle" fill="#e8e6de" font-size="8">〈图1〉</text>

  <rect x="676" y="208" width="372" height="228" rx="10" fill="#202020" stroke="#2a2a2a"/>
  <text x="690" y="228" fill="#9a988f" font-size="10" font-weight="600">生成提示词</text>
  <rect x="898" y="216" width="56" height="20" rx="10" fill="#173427"/><text x="926" y="230" text-anchor="middle" fill="#34d399" font-size="8" font-weight="600">✨ 增强</text>
  <rect x="962" y="216" width="72" height="20" rx="10" fill="#1a1a1a" stroke="#4a4f5c"/><text x="998" y="230" text-anchor="middle" fill="#c6c9d2" font-size="8" font-weight="600">运镜语法 ▾</text>
  <circle cx="1036" cy="222" r="9" fill="#22c55e"/><text x="1036" y="226" text-anchor="middle" fill="#0b0b0a" font-size="9" font-weight="700">⑤</text>
  <text x="690" y="252" fill="#c6c9d2" font-size="9">参考〈视频1〉中的动作与镜头语言，将</text>
  <rect x="690" y="260" width="58" height="17" rx="8" fill="#6f6a86" opacity="0.3"/><text x="719" y="272" text-anchor="middle" fill="#e8e6de" font-size="8" font-weight="600">@弗洛洛</text>
  <text x="754" y="272" fill="#c6c9d2" font-size="9">中浅绿色长麻花辫……</text>
  <text x="690" y="294" fill="#c6c9d2" font-size="9">少女〈图1〉坐在椅子上，神情苦恼郁闷……</text>
  <text x="690" y="316" fill="#c6c9d2" font-size="9">画面快速切换多个室内场景……</text>
  <text x="690" y="418" fill="#6f6a63" font-size="8">来源提示：由剧本第 3 镜生成 · 点击回跳助手对应分镜</text>

  <rect x="676" y="446" width="372" height="60" rx="8" fill="#202020" stroke="#2a2a2a"/>
  <text x="690" y="464" fill="#9a988f" font-size="9">负向提示词</text>
  <text x="690" y="482" fill="#6f6a63" font-size="8">模糊、多余肢体、真实摄影感……</text>

  <!-- right column: params -->
  <rect x="1072" y="176" width="372" height="212" fill="#0b0b0a" stroke="#2a2a2a" rx="8"/>
  <path d="M1086 190 L1086 178 L1098 178" fill="none" stroke="#4a4f5c" stroke-width="1.5"/>
  <path d="M1418 178 L1430 178 L1430 190" fill="none" stroke="#4a4f5c" stroke-width="1.5"/>
  <path d="M1086 374 L1086 386 L1098 386" fill="none" stroke="#4a4f5c" stroke-width="1.5"/>
  <path d="M1418 386 L1430 386 L1430 374" fill="none" stroke="#4a4f5c" stroke-width="1.5"/>
  <polygon points="1240,258 1240,286 1264,272" fill="#4a4f5c"/>
  <circle cx="1330" cy="196" r="4" fill="#e5484d"/><text x="1340" y="199" fill="#e8e6de" font-size="9" font-family="monospace" font-weight="700">TC 00:00:42</text>
  <rect x="1086" y="348" width="332" height="24" rx="12" fill="#1a1a1a" opacity="0.92" stroke="#2a2a2a"/>
  <text x="1100" y="364" fill="#e8e6de" font-size="8" font-family="monospace">SEEDANCE FAST · 720P · 9:16 · AUTO</text>
  <circle cx="1454" cy="182" r="10" fill="#22c55e"/><text x="1454" y="186" text-anchor="middle" fill="#0b0b0a" font-size="10" font-weight="700">②</text>

  <rect x="1072" y="400" width="180" height="56" rx="8" fill="#202020" stroke="#2a2a2a"/>
  <rect x="1072" y="400" width="4" height="56" fill="#6f6a86"/>
  <text x="1086" y="420" fill="#e8e6de" font-size="10" font-weight="600">选角 · 角色</text>
  <text x="1086" y="436" fill="#6f6a63" font-size="8">2 项引用</text>
  <rect x="1264" y="400" width="180" height="56" rx="8" fill="#202020" stroke="#2a2a2a"/>
  <rect x="1264" y="400" width="4" height="56" fill="#5f7a73"/>
  <text x="1278" y="420" fill="#e8e6de" font-size="10" font-weight="600">置景 · 背景</text>
  <text x="1278" y="436" fill="#6f6a63" font-size="8">1 项引用</text>
  <rect x="1072" y="464" width="180" height="56" rx="8" fill="#202020" stroke="#2a2a2a"/>
  <rect x="1072" y="464" width="4" height="56" fill="#647386"/>
  <text x="1086" y="484" fill="#e8e6de" font-size="10" font-weight="600">动作 · 参考视频</text>
  <text x="1086" y="500" fill="#6f6a63" font-size="8">1/3</text>
  <rect x="1264" y="464" width="180" height="56" rx="8" fill="#202020" stroke="#2a2a2a"/>
  <rect x="1264" y="464" width="4" height="56" fill="#856a72"/>
  <text x="1278" y="484" fill="#e8e6de" font-size="10" font-weight="600">配音 · 声音</text>
  <text x="1278" y="500" fill="#6f6a63" font-size="8">1/3</text>
  <circle cx="1454" cy="406" r="10" fill="#22c55e"/><text x="1454" y="410" text-anchor="middle" fill="#0b0b0a" font-size="10" font-weight="700">④</text>

  <!-- version filmstrip -->
  <rect x="1072" y="532" width="76" height="44" rx="6" fill="#202020" stroke="#2a2a2a"/>
  <circle cx="1080" cy="538" r="1.5" fill="#4a4f5c"/><circle cx="1092" cy="538" r="1.5" fill="#4a4f5c"/><circle cx="1104" cy="538" r="1.5" fill="#4a4f5c"/><circle cx="1116" cy="538" r="1.5" fill="#4a4f5c"/>
  <circle cx="1080" cy="570" r="1.5" fill="#4a4f5c"/><circle cx="1092" cy="570" r="1.5" fill="#4a4f5c"/><circle cx="1104" cy="570" r="1.5" fill="#4a4f5c"/><circle cx="1116" cy="570" r="1.5" fill="#4a4f5c"/>
  <text x="1110" y="557" text-anchor="middle" fill="#6f6a63" font-size="7" font-family="monospace">V01</text>
  <rect x="1156" y="532" width="76" height="44" rx="6" fill="#202020" stroke="#2a2a2a"/>
  <text x="1194" y="557" text-anchor="middle" fill="#6f6a63" font-size="7" font-family="monospace">V02</text>
  <rect x="1240" y="532" width="76" height="44" rx="6" fill="#202020" stroke="#e8e6de" stroke-width="1.5"/>
  <text x="1278" y="553" text-anchor="middle" fill="#e8e6de" font-size="7" font-family="monospace" font-weight="700">V03</text>
  <text x="1278" y="565" text-anchor="middle" fill="#34d399" font-size="6" font-weight="700">当前</text>
  <rect x="1324" y="532" width="60" height="44" rx="6" fill="none" stroke="#4a4f5c" stroke-dasharray="3 3"/>
  <text x="1354" y="558" text-anchor="middle" fill="#6f6a63" font-size="12">＋</text>
  <circle cx="1454" cy="536" r="10" fill="#22c55e"/><text x="1454" y="540" text-anchor="middle" fill="#0b0b0a" font-size="10" font-weight="700">③</text>

  <!-- sticky action bar spanning -->
  <rect x="676" y="590" width="768" height="56" rx="10" fill="#22252e" stroke="#10b981"/>
  <text x="692" y="622" fill="#9a988f" font-size="9">场记：参考生 · 选角2 · 置景1 · 动作1 · 配音1</text>
  <rect x="1290" y="602" width="150" height="36" rx="8" fill="#10b981"/>
  <text x="1365" y="625" text-anchor="middle" fill="#10221a" font-size="11" font-weight="700">生成视频 ⌘↵</text>
  <circle cx="1454" cy="596" r="10" fill="#22c55e"/><text x="1454" y="600" text-anchor="middle" fill="#0b0b0a" font-size="10" font-weight="700">⑥</text>

  <!-- B legend -->
  <rect x="660" y="770" width="800" height="150" rx="10" fill="#1a1a1a" stroke="#2a2a2a"/>
  <text x="676" y="792" fill="#e8e6de" font-size="11" font-weight="700">方案 B 改动 ①–⑥（每条对应左侧同号问题）</text>
  <text x="676" y="810" fill="#c6c9d2" font-size="9">① 场记板→44px 单行条：斜纹记号 + mono 版本徽标（V03）+ 右端状态 LED</text>
  <text x="676" y="826" fill="#c6c9d2" font-size="9">② 监视器 front-loaded 于右列顶部：四角取景框 + REC/TC mono + 底部 OSD 胶囊组（不与预览重叠）</text>
  <text x="676" y="842" fill="#c6c9d2" font-size="9">③ 版本条→胶片缩略图：齿孔 + 当前帧 fg 描边 + 绿字「当前」徽标</text>
  <text x="676" y="858" fill="#c6c9d2" font-size="9">④ 部门条→2×2 卡片（180×56）：4px 端口色轨 + 「n 项引用」副行，扫读一眼分四类</text>
  <text x="676" y="874" fill="#c6c9d2" font-size="9">⑤ 工具钮升 20px（≈26px 命中区）；@token 渲染为端口色胶囊，与部门色一一呼应</text>
  <text x="676" y="890" fill="#c6c9d2" font-size="9">⑥ 操作栏 56px（≈60px）：按钮 150×36（≈140×40），文案含快捷键「⌘↵」</text>
  <text x="676" y="908" fill="#34d399" font-size="8">骨架复用现有 @2xl:grid-cols-2，布局风险最低，开发成本最低——推荐作为落地骨架</text>

  <!-- footer: dimensions + motion canon -->
  <rect x="40" y="936" width="1420" height="104" rx="10" fill="#141519" stroke="#2a2a2a"/>
  <text x="56" y="958" fill="#9a988f" font-size="10" font-weight="700">尺寸备注</text>
  <text x="56" y="976" fill="#c6c9d2" font-size="9">面板 896px 内容区（= 56rem − 2×16 padding）· 双栏 gap 16 · 部门卡 2×2（180×56）· 版本帧 76×44 · 操作栏 56px + 按钮 150×36</text>
  <text x="56" y="998" fill="#9a988f" font-size="10" font-weight="700">动效 canon 速查</text>
  <text x="56" y="1016" fill="#c6c9d2" font-size="9">ease 唯一 cubic-bezier(0.22,1,0.36,1) · 时长 fast120 / base200 / slow320 / reveal500 · reduced-motion 全局归零</text>
  <text x="56" y="1032" fill="#6f6a63" font-size="8">面板进出场沿用现状（scale .96→1，退场→.97）· 区块首现 stagger 50ms 封顶 300ms · 助手 dock 出入场与本面板互不抢（M2）</text>
</svg>
