<svg width="100%" viewBox="0 0 680 360" role="img" xmlns="http://www.w3.org/2000/svg">
<title>A2 空画布引导</title>
<defs>
<pattern id="d2" width="22" height="22" patternUnits="userSpaceOnUse"><circle cx="2" cy="2" r="1" fill="#2A2A2A"/></pattern>
<style>text{font-family:system-ui,sans-serif}</style>
</defs>

<text x="20" y="20" font-size="15" font-weight="700" fill="#2C2C2A">A2 · 空画布引导(空态 = 引导 + 起手,不留死白)</text>

<rect x="20" y="34" width="640" height="284" rx="10" fill="#121212" stroke="#3A3A37"/>
<rect x="20" y="34" width="42" height="284" rx="10" fill="#1A1A1A"/>
<rect x="30" y="54" width="18" height="13" rx="3" fill="#2A2A2A"/><rect x="30" y="76" width="18" height="13" rx="3" fill="#2A2A2A"/><rect x="30" y="98" width="18" height="13" rx="3" fill="#2A2A2A"/><rect x="30" y="120" width="18" height="13" rx="3" fill="#2A2A2A"/>

<rect x="62" y="34" width="598" height="24" fill="#1A1A1A"/>
<text x="74" y="50" font-size="9" fill="#C9C7BE">未命名项目</text>
<rect x="270" y="38" width="140" height="16" rx="8" fill="#242424" stroke="#185FA5"/><text x="340" y="50" text-anchor="middle" font-size="8" fill="#C9C7BE">默认模型 · Seedance &#9662;</text>
<text x="648" y="50" text-anchor="end" font-size="9" fill="#C9C7BE">＋ 添加节点</text>

<rect x="62" y="58" width="426" height="260" fill="#121212"/>
<rect x="62" y="58" width="426" height="260" fill="url(#d2)"/>

<rect x="142" y="120" width="268" height="120" rx="14" fill="#1C1C1A" stroke="#3A3A37"/>
<text x="276" y="150" text-anchor="middle" font-size="11.5" font-weight="700" fill="#E8E6DE">空画布 — 从这里开始</text>
<text x="276" y="168" text-anchor="middle" font-size="8.5" fill="#9A988F">聊聊故事,助手帮你把节点铺上</text>
<rect x="176" y="180" width="200" height="26" rx="13" fill="#E8E6DE"/><text x="276" y="197" text-anchor="middle" font-size="9" font-weight="700" fill="#1A1A1A">跟助手聊大纲</text>
<text x="276" y="226" text-anchor="middle" font-size="8" fill="#9A988F">＋ 手动加节点(角色 / 背景 / 镜头 / 图像…)</text>

<rect x="72" y="270" width="80" height="38" rx="6" fill="#1A1A1A" stroke="#3A3A37"/><text x="112" y="293" text-anchor="middle" font-size="7" fill="#4A4A47">minimap</text>
<rect x="232" y="286" width="150" height="22" rx="11" fill="#242424" stroke="#3A3A37"/><text x="307" y="301" text-anchor="middle" font-size="8.5" fill="#9A988F" letter-spacing="2">&#8982; &#9995; &#9101; &#9986; · 100%</text>

<rect x="496" y="58" width="160" height="250" rx="8" fill="#1A1A1A" stroke="#3A3A37"/>
<text x="508" y="78" font-size="9" font-weight="700" fill="#E8E6DE">助手</text>
<text x="640" y="78" text-anchor="end" font-size="9" fill="#6F6A63">&#10530; »</text>
<rect x="508" y="86" width="136" height="34" rx="8" fill="#242424"/><text x="516" y="100" font-size="7.5" fill="#C9C7BE">看了你的画布,还空着。</text><text x="516" y="113" font-size="7.5" fill="#9A988F">先聊故事大纲?</text>
<rect x="508" y="130" width="64" height="16" rx="8" fill="#2A2A2A"/><text x="540" y="141" text-anchor="middle" font-size="7" fill="#C9C7BE">剧本大纲</text>
<rect x="576" y="130" width="68" height="16" rx="8" fill="#2A2A2A"/><text x="610" y="141" text-anchor="middle" font-size="7" fill="#C9C7BE">角色与画风</text>
<rect x="508" y="152" width="64" height="16" rx="8" fill="#2A2A2A"/><text x="540" y="163" text-anchor="middle" font-size="7" fill="#C9C7BE">第一阶段</text>
<rect x="508" y="282" width="136" height="18" rx="6" fill="#242424"/><text x="516" y="295" font-size="7.5" fill="#6F6A63">/ 技能 · @ 素材…</text>

<text x="20" y="338" font-size="8.5" fill="#5F5E5A">· 空态 = 一句引导 + 起手动作(不留死白)· 主按钮 = 反相白丸「聊大纲」· 助手 dock 默认开、与空态呼应</text>
<text x="20" y="354" font-size="8.5" fill="#0C447C">· 默认走助手(剧本脑)→ 聊大纲自动生成节点;也可手动加节点。</text>
</svg>
